<svg xmlns="http://www.w3.org/2000/svg" width="18.527" height="18.931" viewBox="0 0 18.527 18.931">
  <path id="shopping-cart" d="M5.178,12.975a2.649,2.649,0,0,0,2.631,2.646,1.744,1.744,0,1,0,1.536,0h6.734a1.744,1.744,0,1,0,1.537,0h1.437a.641.641,0,0,0,0-1.282H7.824A1.366,1.366,0,0,1,6.46,12.975V11.933a2.631,2.631,0,0,0,1.364.38h9.023A3.446,3.446,0,0,0,20.02,9.919l1.655-5.793a.641.641,0,0,0-.616-.817H6.46V2.647A2.649,2.649,0,0,0,3.814,0a.641.641,0,0,0,0,1.282A1.366,1.366,0,0,1,5.178,2.647Z" transform="translate(-3.173)" fill="#535353"/>
</svg>
