<svg xmlns="http://www.w3.org/2000/svg" width="41" height="41" viewBox="0 0 41 41">
  <g id="Grupo_864" data-name="Grupo 864" transform="translate(-892 -4318)">
    <circle id="Elipse_13" data-name="Elipse 13" cx="20.5" cy="20.5" r="20.5" transform="translate(892 4318)" fill="#e2e2e2"/>
    <path id="_036-facebook" data-name="036-facebook" d="M15.4,0H2.4A2.4,2.4,0,0,0,0,2.4v13a2.4,2.4,0,0,0,2.4,2.4H8.81l.011-6.358H7.169a.39.39,0,0,1-.39-.388L6.771,9a.39.39,0,0,1,.39-.391H8.81V6.625a3.236,3.236,0,0,1,3.454-3.55h1.682a.39.39,0,0,1,.39.39V5.194a.39.39,0,0,1-.39.39H12.914c-1.115,0-1.331.53-1.331,1.307V8.606h2.45a.39.39,0,0,1,.387.436l-.243,2.05a.39.39,0,0,1-.387.344h-2.2l-.011,6.358H15.4a2.4,2.4,0,0,0,2.4-2.4V2.4A2.4,2.4,0,0,0,15.4,0Z" transform="translate(903.998 4330)" fill="#2f314a"/>
  </g>
</svg>
