<svg xmlns="http://www.w3.org/2000/svg" width="41" height="41" viewBox="0 0 41 41">
  <g id="Grupo_865" data-name="Grupo 865" transform="translate(-950 -4318)">
    <circle id="Elipse_14" data-name="Elipse 14" cx="20.5" cy="20.5" r="20.5" transform="translate(950 4318)" fill="#e2e2e2"/>
    <g id="_029-instagram" data-name="029-instagram" transform="translate(961 4329)">
      <path id="Caminho_216" data-name="Caminho 216" d="M14,0H5.939A5.945,5.945,0,0,0,0,5.939V14a5.945,5.945,0,0,0,5.939,5.939H14A5.945,5.945,0,0,0,19.935,14V5.939A5.946,5.946,0,0,0,14,0ZM17.93,14A3.933,3.933,0,0,1,14,17.93H5.939A3.933,3.933,0,0,1,2.005,14V5.939A3.933,3.933,0,0,1,5.939,2.005H14A3.933,3.933,0,0,1,17.93,5.939V14Z" fill="#2f314a"/>
      <path id="Caminho_217" data-name="Caminho 217" d="M138.156,133a5.156,5.156,0,1,0,5.156,5.156A5.162,5.162,0,0,0,138.156,133Zm0,8.306a3.15,3.15,0,1,1,3.15-3.15A3.15,3.15,0,0,1,138.156,141.306Z" transform="translate(-128.188 -128.188)" fill="#2f314a"/>
      <circle id="Elipse_15" data-name="Elipse 15" cx="1.235" cy="1.235" r="1.235" transform="translate(13.898 3.615)" fill="#2f314a"/>
    </g>
  </g>
</svg>
