<svg id="user" xmlns="http://www.w3.org/2000/svg" width="18.931" height="18.931" viewBox="0 0 18.931 18.931">
  <g id="Grupo_1849" data-name="Grupo 1849" transform="translate(0 12.17)">
    <g id="Grupo_1848" data-name="Grupo 1848" transform="translate(0)">
      <path id="Caminho_445" data-name="Caminho 445" d="M15.262,308.194l-2.878-.959a.677.677,0,0,0-.214-.035H6.761a.674.674,0,0,0-.214.035l-2.878.959A5.359,5.359,0,0,0,0,313.284a.676.676,0,0,0,.676.676H18.255a.676.676,0,0,0,.676-.676A5.359,5.359,0,0,0,15.262,308.194Z" transform="translate(0 -307.199)" fill="#535353"/>
    </g>
  </g>
  <g id="Grupo_1851" data-name="Grupo 1851" transform="translate(5.409)">
    <g id="Grupo_1850" data-name="Grupo 1850">
      <path id="Caminho_446" data-name="Caminho 446" d="M140.59,0a4.057,4.057,0,0,0-4.057,4.057v2.7a4.057,4.057,0,1,0,8.113,0v-2.7A4.057,4.057,0,0,0,140.59,0Z" transform="translate(-136.533)" fill="#535353"/>
    </g>
  </g>
</svg>
