<svg id="whatsapp" xmlns="http://www.w3.org/2000/svg" width="74" height="74" viewBox="0 0 74 74">
  <circle id="Elipse_57" data-name="Elipse 57" cx="37" cy="37" r="37" fill="#75b73b"/>
  <path id="Caminho_492" data-name="Caminho 492" d="M147.353,127.441c-2.14-.535-5.286-2.383-7.323-3.124-7.952-2.485-18.638-.5-21.62,8.7a1.494,1.494,0,0,1-.994.249c-5.964,6.958-1.988,15.408-2.485,23.111a11.985,11.985,0,0,1-3.435,7.148l15.465,15.449a36.927,36.927,0,0,0,41.728-30.194Z" transform="translate(-95.422 -105.555)" fill="#52891d"/>
  <g id="Grupo_1909" data-name="Grupo 1909" transform="translate(15.78 15.608)">
    <path id="Caminho_493" data-name="Caminho 493" d="M129.558,108.3a21.131,21.131,0,0,0-17.791,30.691l-2.243,10.886a.822.822,0,0,0,.995.966l10.667-2.527a21.125,21.125,0,1,0,8.373-40.016Zm12.728,32.794a16.551,16.551,0,0,1-19.057,3.119l-1.485-.74-6.54,1.549,1.377-6.682-.732-1.433a16.553,16.553,0,0,1,3.046-19.2,16.54,16.54,0,0,1,23.391,23.391Z" transform="translate(-109.467 -108.276)" fill="#fff"/>
    <path id="Caminho_494" data-name="Caminho 494" d="M203.067,198.938l-4.092-1.175a1.526,1.526,0,0,0-1.509.4l-1,1.019a1.49,1.49,0,0,1-1.62.342,21.84,21.84,0,0,1-7.046-6.214,1.49,1.49,0,0,1,.118-1.652l.873-1.13a1.525,1.525,0,0,0,.188-1.549l-1.721-3.893a1.526,1.526,0,0,0-2.382-.545c-1.142.966-2.5,2.433-2.661,4.059-.29,2.867.939,6.48,5.588,10.82,5.371,5.013,9.672,5.675,12.473,5,1.588-.384,2.858-1.927,3.659-3.19a1.526,1.526,0,0,0-.865-2.287Z" transform="translate(-171.692 -173.234)" fill="#fff"/>
  </g>
  <g id="Grupo_1910" data-name="Grupo 1910" transform="translate(15.861 21.293)">
    <path id="Caminho_495" data-name="Caminho 495" d="M145.487,147.708l-3.2,3.284c.163.151.325.3.483.46a16.542,16.542,0,0,1-19.057,26.51l-1.485-.74-6.54,1.549.135-.656-5.791,5.935a.823.823,0,0,0,.971.542l10.667-2.527a21.125,21.125,0,0,0,23.821-34.356Z" transform="translate(-110.028 -147.708)" fill="#d1d1d1"/>
    <path id="Caminho_496" data-name="Caminho 496" d="M234.726,270.45l-4.092-1.175a1.526,1.526,0,0,0-1.509.4l-1,1.019a1.49,1.49,0,0,1-1.62.342,18.666,18.666,0,0,1-4.5-3.3l-2.844,2.916c.1.093.195.187.3.281,5.371,5.013,9.672,5.675,12.473,5,1.588-.384,2.858-1.927,3.658-3.19A1.527,1.527,0,0,0,234.726,270.45Z" transform="translate(-203.432 -250.431)" fill="#d1d1d1"/>
  </g>
</svg>
