<svg xmlns="http://www.w3.org/2000/svg" width="46" height="46" viewBox="0 0 46 46">
  <g id="Grupo_2026" data-name="Grupo 2026" transform="translate(-180 -1090)">
    <path id="Caminho_443" data-name="Caminho 443" d="M23,0A23,23,0,1,1,0,23,23,23,0,0,1,23,0Z" transform="translate(180 1090)" fill="#95b233"/>
    <g id="Grupo_1043" data-name="Grupo 1043" transform="translate(191.193 1101.194)">
      <g id="Grupo_1036" data-name="Grupo 1036" transform="translate(0 0)">
        <path id="Caminho_221" data-name="Caminho 221" d="M130.951,109.466H112.814a3.346,3.346,0,0,0-3.346,3.346v18.137a3.345,3.345,0,0,0,3.346,3.346h8.945l.016-8.872h-2.305a.544.544,0,0,1-.544-.542l-.011-2.86a.544.544,0,0,1,.544-.546h2.3v-2.763c0-3.207,1.959-4.953,4.819-4.953h2.348a.544.544,0,0,1,.544.544v2.411a.544.544,0,0,1-.544.544h-1.441c-1.556,0-1.857.739-1.857,1.824v2.392h3.419a.544.544,0,0,1,.54.608l-.339,2.86a.544.544,0,0,1-.54.48h-3.064l-.016,8.872h5.323a3.346,3.346,0,0,0,3.346-3.346V112.812a3.346,3.346,0,0,0-3.346-3.346Z" transform="translate(-109.468 -109.466)" fill="#fff"/>
        <path id="Caminho_222" data-name="Caminho 222" d="M254.3,306.68l.016-8.872h-.038v8.872Z" transform="translate(-242.009 -281.852)" fill="#fff"/>
      </g>
      <path id="Caminho_223" data-name="Caminho 223" d="M263.492,109.466h-9.215v12.008h.023v-2.763c0-3.207,1.959-4.953,4.819-4.953h2.348a.544.544,0,0,1,.544.544v2.411a.544.544,0,0,1-.544.544h-1.441c-1.556,0-1.857.739-1.857,1.824v2.392h3.419a.544.544,0,0,1,.54.608l-.339,2.86a.544.544,0,0,1-.54.48h-3.064l-.016,8.872h5.323a3.346,3.346,0,0,0,3.346-3.346V112.812A3.346,3.346,0,0,0,263.492,109.466Z" transform="translate(-242.009 -109.466)" fill="#fff"/>
    </g>
  </g>
</svg>
