<svg id="Grupo_1755" data-name="Grupo 1755" xmlns="http://www.w3.org/2000/svg" width="46" height="46" viewBox="0 0 46 46">
  <circle id="Elipse_41" data-name="Elipse 41" cx="23" cy="23" r="23" fill="#95b233"/>
  <g id="Grupo_1041" data-name="Grupo 1041" transform="translate(10.744 8.95)">
    <g id="Grupo_1039" data-name="Grupo 1039" transform="translate(0 0)">
      <path id="Caminho_231" data-name="Caminho 231" d="M121.275,108.291a12.419,12.419,0,0,0-10.456,18.037l-1.318,6.4a.483.483,0,0,0,.585.568l6.269-1.485a12.415,12.415,0,1,0,4.921-23.518Zm7.48,19.273a9.727,9.727,0,0,1-11.2,1.833l-.873-.435-3.844.91.809-3.927-.43-.842a9.728,9.728,0,0,1,1.79-11.286,9.72,9.72,0,0,1,13.747,13.747Z" transform="translate(-109.467 -108.276)" fill="#f9f9f9"/>
      <path id="Caminho_232" data-name="Caminho 232" d="M194.452,192.851l-2.4-.69a.9.9,0,0,0-.887.234l-.588.6a.876.876,0,0,1-.952.2,12.836,12.836,0,0,1-4.141-3.652.876.876,0,0,1,.069-.971l.513-.664a.9.9,0,0,0,.111-.91l-1.012-2.288a.9.9,0,0,0-1.4-.321,4.044,4.044,0,0,0-1.564,2.386c-.171,1.685.552,3.809,3.284,6.359,3.156,2.946,5.684,3.335,7.33,2.937a4.041,4.041,0,0,0,2.15-1.875.9.9,0,0,0-.508-1.344Z" transform="translate(-176.013 -177.745)" fill="#f9f9f9"/>
    </g>
    <g id="Grupo_1040" data-name="Grupo 1040" transform="translate(0.047 3.341)">
      <path id="Caminho_233" data-name="Caminho 233" d="M130.867,147.708l-1.883,1.93c.1.089.191.178.284.27a9.722,9.722,0,0,1-11.2,15.58l-.873-.435-3.844.911.079-.386-3.4,3.488a.484.484,0,0,0,.571.318l6.269-1.485a12.415,12.415,0,0,0,14-20.191Z" transform="translate(-110.028 -147.708)" fill="#f9f9f9"/>
      <path id="Caminho_234" data-name="Caminho 234" d="M228.31,269.33l-2.4-.69a.9.9,0,0,0-.887.234l-.588.6a.876.876,0,0,1-.952.2,10.972,10.972,0,0,1-2.642-1.94l-1.672,1.714.174.165c3.156,2.946,5.684,3.335,7.33,2.937a4.041,4.041,0,0,0,2.15-1.875A.9.9,0,0,0,228.31,269.33Z" transform="translate(-209.918 -257.565)" fill="#f9f9f9"/>
    </g>
  </g>
</svg>
