<svg xmlns="http://www.w3.org/2000/svg" width="95" height="96" viewBox="0 0 95 96">
  <g id="Grupo_2018" data-name="Grupo 2018" transform="translate(-441 -1458)">
    <g id="Grupo_1875" data-name="Grupo 1875" transform="translate(-24 87)">
      <g id="Elipse_51" data-name="Elipse 51" transform="translate(465 1371)" fill="none" stroke="#abcd39" stroke-width="4">
        <ellipse cx="47.5" cy="48" rx="47.5" ry="48" stroke="none"/>
        <ellipse cx="47.5" cy="48" rx="45.5" ry="46" fill="none"/>
      </g>
      <g id="controlepeso" transform="translate(487 1394)">
        <g id="Grupo_1871" data-name="Grupo 1871" transform="translate(0 0)">
          <path id="Caminho_461" data-name="Caminho 461" d="M61.744,133.627h0l18.3-.008a1.288,1.288,0,0,0,1.287-1.287v-35a1.287,1.287,0,0,0-1.287-1.284H73.132a.746.746,0,0,0-.746.746v.147a12.728,12.728,0,1,1-25.457,0c0-.017,0-.034,0-.052s0-.064,0-.095a.746.746,0,0,0-.746-.746H39.271a1.287,1.287,0,0,0-1.287,1.284v35a1.288,1.288,0,0,0,1.287,1.287l19.032.008,0-.008a.746.746,0,0,0,0-1.491H39.475V97.534h5.975a14.22,14.22,0,0,0,28.415,0h5.975v34.593l-18.1.008a.746.746,0,0,0,0,1.491Z" transform="translate(-34.208 -86.494)" fill="#fff"/>
          <path id="Caminho_462" data-name="Caminho 462" d="M231.887,56.129a2.531,2.531,0,0,0-1.221-.138l-1-2.179a.746.746,0,1,0-1.356.621l1,2.181a2.541,2.541,0,0,0,2.75,4.207,2.541,2.541,0,0,0-.174-4.693Zm.1,2.75a1.05,1.05,0,0,1-1.938.071,1.05,1.05,0,0,1,1.32-1.423,1.051,1.051,0,0,1,.618,1.352Z" transform="translate(-205.552 -48.071)" fill="#fff"/>
          <path id="Caminho_463" data-name="Caminho 463" d="M50.158,26.84a.746.746,0,0,0,.746-.746V10.1a4.336,4.336,0,0,0-4.331-4.331H34.788A10.491,10.491,0,0,0,32.9,3.129a.743.743,0,0,0-.063-.073.752.752,0,0,0-.072-.063,10.423,10.423,0,0,0-14.615-.005A.675.675,0,0,0,18,3.137a10.49,10.49,0,0,0-1.882,2.632H4.331A4.336,4.336,0,0,0,0,10.1V46.573A4.336,4.336,0,0,0,4.331,50.9H46.573A4.336,4.336,0,0,0,50.9,46.573V29.539a.746.746,0,1,0-1.491,0V46.573a2.842,2.842,0,0,1-2.839,2.839H4.331a2.842,2.842,0,0,1-2.839-2.839V10.1A2.842,2.842,0,0,1,4.33,7.261H15.506A10.433,10.433,0,0,0,18,17.753a.675.675,0,0,0,.135.135,10.421,10.421,0,0,0,14.632-.006.733.733,0,0,0,.064-.057.752.752,0,0,0,.057-.064A10.43,10.43,0,0,0,35.4,7.261H46.573A2.842,2.842,0,0,1,49.412,10.1V26.094a.746.746,0,0,0,.746.746ZM32.283,16.219l-.733-.733a.746.746,0,0,0-1.055,1.055l.733.733A8.913,8.913,0,0,1,26.2,19.362V18.319a.746.746,0,0,0-1.491,0v1.044a8.908,8.908,0,0,1-5.03-2.089l.734-.732a.746.746,0,0,0-1.053-1.056l-.735.733a8.915,8.915,0,0,1-2.087-5.032h1.041a.746.746,0,0,0,0-1.491H16.533a8.911,8.911,0,0,1,2.088-5.03l.734.734a.746.746,0,0,0,1.055-1.055l-.734-.734A8.91,8.91,0,0,1,24.7,1.523V2.564a.746.746,0,0,0,1.491,0V1.523A8.914,8.914,0,0,1,31.228,3.61l-.733.735A.746.746,0,0,0,31.55,5.4l.732-.734A8.91,8.91,0,0,1,34.371,9.7H33.328a.746.746,0,0,0,0,1.491h1.044a8.914,8.914,0,0,1-2.089,5.032Z" transform="translate(0 0)" fill="#fff"/>
          <path id="Caminho_464" data-name="Caminho 464" d="M169.855,366.13v-3.94a1.263,1.263,0,0,0-1.261-1.261H149.739a1.263,1.263,0,0,0-1.261,1.261v3.94a1.263,1.263,0,0,0,1.261,1.262h18.854A1.263,1.263,0,0,0,169.855,366.13Zm-1.491-.23H149.969v-3.48h18.394Z" transform="translate(-133.716 -325.044)" fill="#fff"/>
        </g>
      </g>
    </g>
  </g>
</svg>
