<svg xmlns="http://www.w3.org/2000/svg" width="95" height="96" viewBox="0 0 95 96">
  <g id="Grupo_2024" data-name="Grupo 2024" transform="translate(-849 -1651)">
    <g id="Grupo_1881" data-name="Grupo 1881" transform="translate(8 99)">
      <g id="Elipse_56" data-name="Elipse 56" transform="translate(841 1552)" fill="none" stroke="#abcd39" stroke-width="4">
        <ellipse cx="47.5" cy="48" rx="47.5" ry="48" stroke="none"/>
        <ellipse cx="47.5" cy="48" rx="45.5" ry="46" fill="none"/>
      </g>
      <g id="shit" transform="translate(843.054 1446.999)">
        <ellipse id="Elipse_49" data-name="Elipse 49" cx="0.5" cy="1" rx="0.5" ry="1" transform="translate(44.946 172.001)" fill="#fff"/>
        <path id="Caminho_490" data-name="Caminho 490" d="M27.1,174.525H40.53a1.119,1.119,0,1,0,0-2.238H27.1a3.917,3.917,0,0,1,0-7.833h3.357a1.119,1.119,0,1,0,0-2.238,3.917,3.917,0,0,1,0-7.833H45.565a1.119,1.119,0,1,0,0-2.238H33.815a3.917,3.917,0,0,1,0-7.833h2.577a1.12,1.12,0,0,0,.969-1.68,5.6,5.6,0,0,1,3.794-8.293,11.207,11.207,0,0,0,11.125,9.972h5.036a3.917,3.917,0,0,1,0,7.833,1.119,1.119,0,1,0,0,2.238h3.357a3.917,3.917,0,0,1,0,7.833H46.09a1.119,1.119,0,1,0,0,2.238H64.03a3.917,3.917,0,0,1,0,7.833H50.6a1.119,1.119,0,0,0,0,2.238H64.03A6.155,6.155,0,0,0,65.3,162.348a6.152,6.152,0,0,0-3.357-10.072,6.152,6.152,0,0,0-4.632-10.2H52.28a8.963,8.963,0,0,1-8.952-8.952A1.119,1.119,0,0,0,42.208,132,7.835,7.835,0,0,0,34.7,142.073h-.885a6.152,6.152,0,0,0-4.632,10.2,6.152,6.152,0,0,0-3.357,10.072A6.155,6.155,0,0,0,27.1,174.525Z" fill="#fff"/>
      </g>
    </g>
  </g>
</svg>
