<svg xmlns="http://www.w3.org/2000/svg" width="95" height="96" viewBox="0 0 95 96">
  <g id="Grupo_2023" data-name="Grupo 2023" transform="translate(-589 -1651)">
    <g id="Grupo_1882" data-name="Grupo 1882" transform="translate(-4 99)">
      <g id="Elipse_55" data-name="Elipse 55" transform="translate(593 1552)" fill="none" stroke="#abcd39" stroke-width="4">
        <ellipse cx="47.5" cy="48" rx="47.5" ry="48" stroke="none"/>
        <ellipse cx="47.5" cy="48" rx="45.5" ry="46" fill="none"/>
      </g>
      <g id="outline" transform="translate(580.963 1538.5)">
        <path id="Caminho_481" data-name="Caminho 481" d="M186.08,227.041a6.137,6.137,0,0,0-11.77,0,6.137,6.137,0,1,0,5.885,10.413,6.138,6.138,0,1,0,5.885-10.413Zm-1.74,10.111a4.2,4.2,0,0,1-3.381-1.691.955.955,0,0,0-1.528,0,4.226,4.226,0,1,1-4.156-6.689.955.955,0,0,0,.765-.765,4.225,4.225,0,0,1,8.308,0,.955.955,0,0,0,.765.765,4.226,4.226,0,0,1-.774,8.38Z" transform="translate(-121.413 -167.879)" fill="#fff"/>
        <path id="Caminho_482" data-name="Caminho 482" d="M172.141,139.315a4.134,4.134,0,0,0,1.375.242,3.685,3.685,0,0,0,1.854-.494,3.824,3.824,0,0,0,1.834-2.671,5.021,5.021,0,0,0-3.186-5.519,3.759,3.759,0,0,0-5.064,2.924A5.021,5.021,0,0,0,172.141,139.315Zm-1.308-5.168a1.945,1.945,0,0,1,.911-1.368,1.793,1.793,0,0,1,.9-.236,2.218,2.218,0,0,1,.736.131,3.114,3.114,0,0,1,1.943,3.365,1.853,1.853,0,0,1-2.551,1.473,3.114,3.114,0,0,1-1.943-3.365Z" transform="translate(-120.508 -86.852)" fill="#fff"/>
        <path id="Caminho_483" data-name="Caminho 483" d="M119.842,207.389a4.615,4.615,0,0,0-6.947-5.978,3.825,3.825,0,0,0-.849,3.127,5.012,5.012,0,0,0,4.837,4.153A3.848,3.848,0,0,0,119.842,207.389Zm-1.448-1.246a2.458,2.458,0,0,1-3.43-.11,2.974,2.974,0,0,1-1.029-1.783,1.856,1.856,0,0,1,1.915-2.236,3,3,0,0,1,1.923.754,2.458,2.458,0,0,1,.62,3.375Z" transform="translate(-70.411 -148.035)" fill="#fff"/>
        <path id="Caminho_484" data-name="Caminho 484" d="M274.75,138.312a3.675,3.675,0,0,0,1.849.49,4.682,4.682,0,0,0,3.962-2.426,4.352,4.352,0,0,0-1.229-6,3.822,3.822,0,0,0-3.23-.253,4.884,4.884,0,0,0-2.581,2.189A4.352,4.352,0,0,0,274.75,138.312Zm.426-5.045a2.973,2.973,0,0,1,1.561-1.342,2.219,2.219,0,0,1,.736-.131,1.793,1.793,0,0,1,.9.236,2.734,2.734,0,1,1-3.2,1.237Z" transform="translate(-212.05 -86.192)" fill="#fff"/>
        <path id="Caminho_485" data-name="Caminho 485" d="M335.472,201.717a3.759,3.759,0,0,0-3.805-4.432h-.009a5.021,5.021,0,0,0-4.83,4.157,3.759,3.759,0,0,0,3.805,4.432h.009a5.021,5.021,0,0,0,4.83-4.157Zm-1.889-.289a3.114,3.114,0,0,1-2.946,2.535h-.005a1.853,1.853,0,0,1-1.917-2.233,3.114,3.114,0,0,1,2.945-2.535h.005a1.853,1.853,0,0,1,1.917,2.233Z" transform="translate(-259.545 -145.547)" fill="#fff"/>
        <path id="Caminho_486" data-name="Caminho 486" d="M84.492,72.743a5.092,5.092,0,0,0-1.939-1.72A26.749,26.749,0,1,0,71.109,82.491l4.27,2.847a.955.955,0,0,0,1.06,0l6.446-4.3a5.966,5.966,0,0,0,2.34-3.063,5.9,5.9,0,0,0-.693-5.173ZM58.781,83.587A24.83,24.83,0,1,1,80.67,70.494a3.971,3.971,0,0,0-.422-.022,5.087,5.087,0,0,0-2.014.413A22.9,22.9,0,1,0,67.66,79.892a5.932,5.932,0,0,0,1.273,1.147l.342.228A24.908,24.908,0,0,1,58.781,83.587Zm8.545-10.845-.041.061a5.9,5.9,0,0,0-.693,5.173c.028.085.059.169.091.253a21.034,21.034,0,1,1,8.462-6.292,5.1,5.1,0,0,0-7.819.805Zm16.086,4.63a4.048,4.048,0,0,1-1.587,2.078l-5.917,3.944L69.992,79.45a4.037,4.037,0,0,1-1.076-1.065.944.944,0,0,0-.225-.362,4.007,4.007,0,0,1,.184-4.16l.041-.061a3.189,3.189,0,0,1,4.908-.486l1.409,1.409a.955.955,0,0,0,1.351,0l1.409-1.409a3.183,3.183,0,0,1,2.987-.848h0A3.181,3.181,0,0,1,82.9,73.8l.04.061A4,4,0,0,1,83.413,77.372Z" transform="translate(0 0)" fill="#fff"/>
      </g>
    </g>
  </g>
</svg>
