<svg xmlns="http://www.w3.org/2000/svg" width="95" height="96" viewBox="0 0 95 96">
  <g id="Grupo_2017" data-name="Grupo 2017" transform="translate(-194 -1458)">
    <g id="Grupo_1874" data-name="Grupo 1874" transform="translate(1 87)">
      <g id="XMLID_14_" transform="translate(213 1366.792)">
        <g id="XMLID_139_" transform="translate(0 28.208)">
          <path id="XMLID_142_" d="M53.556,37.291a3.423,3.423,0,0,0-2.624-1.22H48.5a6.117,6.117,0,0,0-5.328-3.1h-.5v-3.7a1.062,1.062,0,0,0-1.062-1.062,7.186,7.186,0,0,0-7.178,7.178V38.7A6.122,6.122,0,0,1,31.1,44.165l-3.467,1.789a1.062,1.062,0,1,0,.974,1.887l3.467-1.789A8.238,8.238,0,0,0,36.551,38.7V35.386a5.063,5.063,0,0,1,3.992-4.942v3.591A1.062,1.062,0,0,0,41.605,35.1h1.565a4,4,0,0,1,3.691,2.448,1.062,1.062,0,0,0,.978.649h3.092a1.307,1.307,0,0,1,1.288,1.529L51.827,42a3,3,0,0,1-2.962,2.5H44.138l-.033,0-.033,0a1.062,1.062,0,0,0-1.062,1.062v5.192a28.406,28.406,0,0,1-2.155,10.884,1.062,1.062,0,0,0-.046.673L43.422,72.3a1.062,1.062,0,0,0,.259.465l.933.977a.426.426,0,0,1-.308.719H40.769L36.206,62.635v-4.91a1.062,1.062,0,1,0-2.124,0v5.108a1.061,1.061,0,0,0,.071.382l4.339,11.243H34.758A6.946,6.946,0,0,0,27.9,68.585h-1.2l-.474-2.813a7.335,7.335,0,0,0-5.743-5.989l-2.008-.426a1.062,1.062,0,1,0-.441,2.077l2.008.426a5.223,5.223,0,0,1,4.089,4.265l.415,2.46H18.01a1.062,1.062,0,0,0,0,2.124H27.9a4.819,4.819,0,0,1,4.693,3.75H17.837A9.645,9.645,0,0,1,8.2,64.824a10.555,10.555,0,0,1,5.736-9.415l6.178-3.188a1.062,1.062,0,0,0-.974-1.887l-6.178,3.188a12.726,12.726,0,0,0-4.25,3.539A8.247,8.247,0,0,1,12.73,48.18a1.728,1.728,0,0,0,.827-1.97,1.884,1.884,0,0,0-1.8-1.408h-.028A11.887,11.887,0,0,0,6.318,67.189a11.778,11.778,0,0,0,11.519,9.392h26.47a2.549,2.549,0,0,0,1.843-4.31l-.743-.778-2.453-9.381a30.512,30.512,0,0,0,2.18-11.361v-4.13h3.731a5.119,5.119,0,0,0,5.055-4.258l.393-2.28A3.422,3.422,0,0,0,53.556,37.291ZM2.125,56.49a9.764,9.764,0,0,1,8.543-9.5,10.375,10.375,0,0,0-4.254,8.365,10.25,10.25,0,0,0,.846,4.1,12.719,12.719,0,0,0-1.177,5.081A9.813,9.813,0,0,1,2.125,56.49Z" transform="translate(0 -28.208)" fill="#fff"/>
          <path id="XMLID_143_" d="M401.452,118.871a1.061,1.061,0,1,0-.751.311A1.071,1.071,0,0,0,401.452,118.871Z" transform="translate(-357.205 -107.624)" fill="#fff"/>
          <path id="XMLID_144_" d="M215.92,216.981a1.059,1.059,0,1,0-.752-.31A1.07,1.07,0,0,0,215.92,216.981Z" transform="translate(-192.044 -195.04)" fill="#fff"/>
        </g>
      </g>
      <g id="Elipse_50" data-name="Elipse 50" transform="translate(193 1371)" fill="none" stroke="#abcd39" stroke-width="4">
        <ellipse cx="47.5" cy="48" rx="47.5" ry="48" stroke="none"/>
        <ellipse cx="47.5" cy="48" rx="45.5" ry="46" fill="none"/>
      </g>
    </g>
  </g>
</svg>
