<svg xmlns="http://www.w3.org/2000/svg" width="95" height="96" viewBox="0 0 95 96">
  <g id="Grupo_2022" data-name="Grupo 2022" transform="translate(-325 -1651)">
    <g id="Grupo_1883" data-name="Grupo 1883" transform="translate(-15 99)">
      <g id="Elipse_53" data-name="Elipse 53" transform="translate(340 1552)" fill="none" stroke="#abcd39" stroke-width="4">
        <ellipse cx="47.5" cy="48" rx="47.5" ry="48" stroke="none"/>
        <ellipse cx="47.5" cy="48" rx="45.5" ry="46" fill="none"/>
      </g>
      <g id="outline" transform="translate(343 1476.997)">
        <path id="Caminho_474" data-name="Caminho 474" d="M72.768,135.754h-.12l-1.812-13.6a.962.962,0,0,0-.954-.835H66.994a7.622,7.622,0,0,0-2.253-5.443,7.718,7.718,0,0,0-4.028-2.122,7.7,7.7,0,0,0-7.428-4.938,11.548,11.548,0,0,0-18.765,0,7.7,7.7,0,0,0-7.428,4.938,7.718,7.718,0,0,0-4.027,2.123,7.622,7.622,0,0,0-2.253,5.443h-.963a.962.962,0,0,0-.954.835l-1.812,13.6h-.12a.962.962,0,0,0-.962.962v3.849a.962.962,0,0,0,.962.962H72.768a.962.962,0,0,0,.962-.962v-3.849A.962.962,0,0,0,72.768,135.754ZM24.426,117.24a5.705,5.705,0,0,1,3.488-1.66.962.962,0,0,0,.825-.688,5.773,5.773,0,0,1,6.163-4.119.961.961,0,0,0,.911-.435,9.624,9.624,0,0,1,16.179,0,.961.961,0,0,0,.911.435,5.773,5.773,0,0,1,6.163,4.119.962.962,0,0,0,.825.688,5.774,5.774,0,0,1,5.18,5.742H22.734a5.719,5.719,0,0,1,1.692-4.082Zm-3.736,6.006H69.04l1.668,12.508H19.023ZM71.806,139.6H17.924v-1.924H71.806Z" fill="#fff"/>
        <path id="Caminho_475" data-name="Caminho 475" d="M433.915,308.834a.962.962,0,0,0-1.908.254l.449,3.368a.962.962,0,1,0,1.907-.254Z" transform="translate(-365.966 -179.461)" fill="#fff"/>
        <path id="Caminho_476" data-name="Caminho 476" d="M428.417,274.877a.962.962,0,0,0,.827-1.081l-.128-.962a.962.962,0,1,0-1.907.254l.128.962a.961.961,0,0,0,1.081.827Z" transform="translate(-361.744 -147.791)" fill="#fff"/>
        <path id="Caminho_477" data-name="Caminho 477" d="M207.612,280a3.124,3.124,0,0,0-2.833,1.837h-2.292a4.269,4.269,0,1,0-.364,5.6h3.019a4,4,0,1,0,2.47-7.435Zm.969,4.88a1.181,1.181,0,1,1-2.037,1.18.962.962,0,0,0-.869-.549H201.59a.962.962,0,0,0-.869.549,1.181,1.181,0,1,1-2.036-1.179.962.962,0,0,0,0-1.1,1.181,1.181,0,1,1,2.138-.845.962.962,0,0,0,.952.827h3.716a.962.962,0,0,0,.952-.826,1.181,1.181,0,1,1,2.138.844.962.962,0,0,0,0,1.1Z" transform="translate(-158.833 -154.828)" fill="#fff"/>
        <path id="Caminho_478" data-name="Caminho 478" d="M154.887,192A2.89,2.89,0,0,0,152,194.887a.962.962,0,0,0,1.924,0,.962.962,0,1,1,1.924,0,.962.962,0,0,0,1.924,0A2.89,2.89,0,0,0,154.887,192Z" transform="translate(-119.643 -77.413)" fill="#fff"/>
        <path id="Caminho_479" data-name="Caminho 479" d="M330.887,200A2.89,2.89,0,0,0,328,202.887a.962.962,0,1,0,1.924,0,.962.962,0,1,1,1.924,0,.962.962,0,0,0,1.924,0A2.89,2.89,0,0,0,330.887,200Z" transform="translate(-274.475 -84.451)" fill="#fff"/>
        <path id="Caminho_480" data-name="Caminho 480" d="M234.875,137.924a.962.962,0,0,0-.029-1.924A2.89,2.89,0,0,0,232,138.928a.962.962,0,0,0,.962.948h.015a.962.962,0,0,0,.947-.976A.963.963,0,0,1,234.875,137.924Z" transform="translate(-190.024 -28.148)" fill="#fff"/>
        <ellipse id="Elipse_47" data-name="Elipse 47" cx="0.783" cy="1.174" rx="0.783" ry="1.174" transform="translate(44.188 117.314)" fill="#fff"/>
        <circle id="Elipse_48" data-name="Elipse 48" cx="0.783" cy="0.783" r="0.783" transform="translate(48.886 111.833)" fill="#fff"/>
      </g>
    </g>
  </g>
</svg>
