<svg xmlns="http://www.w3.org/2000/svg" width="95" height="96" viewBox="0 0 95 96">
  <g id="Grupo_2020" data-name="Grupo 2020" transform="translate(-707 -1458)">
    <g id="Grupo_2019" data-name="Grupo 2019">
      <g id="Grupo_1876" data-name="Grupo 1876" transform="translate(-13 87)">
        <g id="Elipse_52" data-name="Elipse 52" transform="translate(720 1371)" fill="none" stroke="#abcd39" stroke-width="4">
          <ellipse cx="47.5" cy="48" rx="47.5" ry="48" stroke="none"/>
          <ellipse cx="47.5" cy="48" rx="45.5" ry="46" fill="none"/>
        </g>
        <g id="sistemaurinario" transform="translate(739 1351.052)">
          <g id="Grupo_1872" data-name="Grupo 1872" transform="translate(0 43.947)">
            <path id="Caminho_491" data-name="Caminho 491" d="M54.776,57.768a.835.835,0,1,0-1.5.735A21.271,21.271,0,0,1,55.3,67.748c0,3.16-.656,9.118-5.046,13.509a7.426,7.426,0,0,1-11.768-8.808.812.812,0,0,0,.047-.082,7.455,7.455,0,0,1,1.222-1.609,4.451,4.451,0,0,0,.724-.945l.009-.016c.048-.084.092-.169.134-.256a4.614,4.614,0,0,1,1.638,1.828.835.835,0,0,0,1.486-.761,6.03,6.03,0,0,0-2.727-2.747c0-.038,0-.075,0-.113a4.3,4.3,0,0,0-.044-.615,6,6,0,0,0,2.768-2.767.834.834,0,1,0-1.486-.761,4.5,4.5,0,0,1-1.856,1.95q-.057-.092-.119-.182c-.01-.014-.02-.029-.03-.043a4.558,4.558,0,0,0-.5-.592,7.424,7.424,0,1,1,10.5-10.5c.357.357.7.738,1.024,1.131a.835.835,0,0,0,1.292-1.057c-.357-.436-.739-.858-1.135-1.255A9.094,9.094,0,0,0,37.17,64.112l-1.129-.395a5.261,5.261,0,0,1-2.834-2.36l-1.558-2.733a5.159,5.159,0,0,1-.677-2.552V46.484A2.51,2.51,0,0,0,28.6,43.95a2.469,2.469,0,0,0-1.838.685,2.5,2.5,0,0,0-.771,1.8v9.635a5.161,5.161,0,0,1-.677,2.552l-1.558,2.732a5.261,5.261,0,0,1-2.834,2.36L19.8,64.11A9.095,9.095,0,0,0,5.535,53.06C.719,57.876,0,64.33,0,67.748c0,2.967.557,8.641,4.29,13.3A.835.835,0,0,0,5.592,80C2.179,75.744,1.669,70.5,1.669,67.748c0-3.16.656-9.118,5.046-13.509a7.424,7.424,0,1,1,10.5,10.5,4.575,4.575,0,0,0-.5.591c-.011.014-.02.028-.03.042q-.063.091-.12.183a4.5,4.5,0,0,1-1.856-1.95.834.834,0,1,0-1.485.761,6,6,0,0,0,2.768,2.767,4.3,4.3,0,0,0-.044.615c0,.038,0,.075,0,.113a6.028,6.028,0,0,0-2.727,2.747.834.834,0,1,0,1.485.761,4.614,4.614,0,0,1,1.638-1.828c.043.091.091.181.141.269l.019.033a4.459,4.459,0,0,0,.706.914,7.454,7.454,0,0,1,1.221,1.608.847.847,0,0,0,.048.084,7.427,7.427,0,0,1-10.214,10A.835.835,0,1,0,7.438,83.9,9.1,9.1,0,0,0,20.659,73.33l.118.037a1.749,1.749,0,0,1,1.231,1.676v13.6a2.49,2.49,0,0,0,4.98,0v-13.6a6.708,6.708,0,0,0-4.722-6.428l-.137-.043.439-.153a10.241,10.241,0,0,0,5.517-4.594l.4-.7.4.7A10.241,10.241,0,0,0,34.4,68.418l.44.154-.136.043a6.707,6.707,0,0,0-4.722,6.428v13.6a2.49,2.49,0,0,0,4.98,0v-13.6a1.748,1.748,0,0,1,1.231-1.676l.118-.037a9.1,9.1,0,0,0,15.124,9.107c4.816-4.816,5.535-11.27,5.535-14.689A22.947,22.947,0,0,0,54.776,57.768ZM25.318,75.042v13.6a.821.821,0,0,1-1.642,0v-13.6a3.411,3.411,0,0,0-2.4-3.268l-1.531-.48A9.131,9.131,0,0,0,18.608,69.8l.88-.308,2.277.713A5.045,5.045,0,0,1,25.318,75.042ZM30.331,63l-.979-1.717a1,1,0,0,0-1.739,0L26.633,63a8.571,8.571,0,0,1-4.617,3.845l-4.325,1.512a2.563,2.563,0,0,1-.074-.606,2.464,2.464,0,0,1,.31-1.216l3.547-1.24a6.93,6.93,0,0,0,3.733-3.109l1.558-2.732a6.832,6.832,0,0,0,.9-3.379V46.437a.821.821,0,0,1,.862-.82.855.855,0,0,1,.78.867v9.588a6.832,6.832,0,0,0,.9,3.379l1.558,2.732a6.928,6.928,0,0,0,3.733,3.109l3.55,1.241a2.464,2.464,0,0,1,.309,1.215,2.565,2.565,0,0,1-.074.606l-4.327-1.512A8.572,8.572,0,0,1,30.331,63Zm5.361,8.777a3.411,3.411,0,0,0-2.4,3.268v13.6a.821.821,0,0,1-1.642,0v-13.6A5.045,5.045,0,0,1,35.2,70.207l2.276-.713.881.308a9.139,9.139,0,0,0-1.135,1.492Z" transform="translate(0 -43.947)" fill="#fff"/>
          </g>
        </g>
      </g>
    </g>
  </g>
</svg>
