<svg xmlns="http://www.w3.org/2000/svg" width="40" height="40" viewBox="0 0 40 40">
  <g id="Grupo_1870" data-name="Grupo 1870" transform="translate(-471 -1250)">
    <g id="semconservante" transform="translate(482.238 1257.295)">
      <g id="Grupo_1858" data-name="Grupo 1858" transform="translate(0 0)">
        <g id="Grupo_1857" data-name="Grupo 1857">
          <path id="Caminho_450" data-name="Caminho 450" d="M410.2,327.956a.519.519,0,1,0-.31.581A.524.524,0,0,0,410.2,327.956Z" transform="translate(-392.239 -310.537)" fill="#2f314a"/>
          <path id="Caminho_451" data-name="Caminho 451" d="M100.131,19.373a.519.519,0,0,0-.64.36A7.951,7.951,0,0,1,83.884,17.59,7.889,7.889,0,0,1,89.81,9.96a.519.519,0,0,0,.382-.5V7.153h3.285V9.459a.519.519,0,0,0,.382.5,7.959,7.959,0,0,1,5.595,5.36.519.519,0,0,0,.994-.3,8.969,8.969,0,0,0-5.932-5.949V7.153h1.258a.519.519,0,0,0,.519-.519V4.074a.519.519,0,0,0-.519-.519H94.6l.434-2.96A.519.519,0,0,0,94.518,0H89.149a.519.519,0,0,0-.514.594l.434,2.96H87.9a.519.519,0,0,0-.519.519v2.56a.519.519,0,0,0,.519.519h1.258V9.072a8.9,8.9,0,0,0-6.307,8.518,9,9,0,0,0,8.988,8.986,8.9,8.9,0,0,0,5.479-1.862,9.046,9.046,0,0,0,3.179-4.7A.519.519,0,0,0,100.131,19.373ZM89.75,1.038h4.168l-.369,2.517H90.119ZM88.414,4.593h6.839V6.115H88.414Z" transform="translate(-82.846 0)" fill="#2f314a"/>
          <path id="Caminho_452" data-name="Caminho 452" d="M190.422,226.719a1.6,1.6,0,1,0-1.6,1.6A1.6,1.6,0,0,0,190.422,226.719Zm-2.168,0a.565.565,0,1,1,.565.565A.566.566,0,0,1,188.254,226.719Z" transform="translate(-181.799 -213.431)" fill="#2f314a"/>
          <path id="Caminho_453" data-name="Caminho 453" d="M127.136,266.989a6.807,6.807,0,0,0-.08,1.041,6.693,6.693,0,0,0,13.386,0,6.815,6.815,0,0,0-.08-1.041.519.519,0,0,0-.513-.439h-.777q0-.057,0-.115a2.284,2.284,0,1,0-4.568,0q0,.058,0,.115h-6.862A.519.519,0,0,0,127.136,266.989Zm.975.6h7.033a.519.519,0,0,0,.484-.705,1.246,1.246,0,1,1,2.326,0,.519.519,0,0,0,.484.705h.948c.011.147.017.295.017.442a5.655,5.655,0,0,1-11.31,0C128.094,267.882,128.1,267.734,128.111,267.588Z" transform="translate(-124.761 -250.44)" fill="#2f314a"/>
        </g>
      </g>
    </g>
    <g id="prohibition" transform="translate(471 1250)">
      <g id="Grupo_1859" data-name="Grupo 1859">
        <path id="Caminho_456" data-name="Caminho 456" d="M34.142,5.858A20,20,0,0,0,5.858,34.142,20,20,0,0,0,34.142,5.858ZM20,37.656A17.647,17.647,0,0,1,6.72,8.377l24.9,24.9A17.582,17.582,0,0,1,20,37.656Zm13.28-6.034L8.378,6.72a17.647,17.647,0,0,1,24.9,24.9Z" fill="#2f314a"/>
      </g>
    </g>
  </g>
</svg>
