<svg xmlns="http://www.w3.org/2000/svg" width="40" height="40" viewBox="0 0 40 40">
  <g id="Grupo_1868" data-name="Grupo 1868" transform="translate(-570 -1163)">
    <g id="dropper" transform="translate(577.938 1169.796)">
      <g id="Grupo_1861" data-name="Grupo 1861" transform="translate(20.555 2.101)">
        <g id="Grupo_1860" data-name="Grupo 1860">
          <path id="Caminho_457" data-name="Caminho 457" d="M424.438,40.681a.519.519,0,0,0-.735.734,1.531,1.531,0,0,1,0,2.16.519.519,0,1,0,.735.734A2.571,2.571,0,0,0,424.438,40.681Z" transform="translate(-423.551 -40.528)" fill="#2f314a"/>
        </g>
      </g>
      <g id="Grupo_1863" data-name="Grupo 1863" transform="translate(19.328 6.203)">
        <g id="Grupo_1862" data-name="Grupo 1862">
          <path id="Caminho_458" data-name="Caminho 458" d="M400.791,119.786a.519.519,0,0,0-.734.031l-.021.023a.519.519,0,0,0,.765.7l.021-.023A.519.519,0,0,0,400.791,119.786Z" transform="translate(-399.899 -119.648)" fill="#2f314a"/>
        </g>
      </g>
      <g id="Grupo_1865" data-name="Grupo 1865" transform="translate(0 21.143)">
        <g id="Grupo_1864" data-name="Grupo 1864">
          <path id="Caminho_459" data-name="Caminho 459" d="M30.812,408.693c-.034-.036-.842-.887-1.38-.887s-1.346.851-1.38.887a3.2,3.2,0,0,0-.958,2.135,2.338,2.338,0,1,0,4.675,0A3.2,3.2,0,0,0,30.812,408.693Zm-1.38,3.476a1.322,1.322,0,0,1-1.3-1.341,2.716,2.716,0,0,1,1.3-1.946,2.716,2.716,0,0,1,1.3,1.946A1.322,1.322,0,0,1,29.432,412.169Z" transform="translate(-27.095 -407.806)" fill="#2f314a"/>
        </g>
      </g>
      <g id="Grupo_1867" data-name="Grupo 1867" transform="translate(2.784)">
        <g id="Grupo_1866" data-name="Grupo 1866" transform="translate(0)">
          <path id="Caminho_460" data-name="Caminho 460" d="M100.544,1.21a4.122,4.122,0,0,0-5.836,0l-2.893,2.9a1.762,1.762,0,0,0-2.281,2.672l.559.559-7.188,7.2-.027.028-.009.008-.017.019a3.061,3.061,0,0,0-.781,2.743l-.781.782a1.688,1.688,0,0,0,0,2.381,1.681,1.681,0,0,0,2.38,0l.78-.782a3.052,3.052,0,0,0,2.794-.836l7.191-7.206.548.548a1.762,1.762,0,0,0,2.672-2.282l2.889-2.9A4.142,4.142,0,0,0,100.544,1.21ZM86.509,18.154a2.02,2.02,0,0,1-2.056.5.52.52,0,0,0-.527.128l-.991.993a.642.642,0,0,1-.909,0,.647.647,0,0,1,0-.913l.991-.993a.519.519,0,0,0,.127-.526,2.031,2.031,0,0,1,.15-1.6l1.371,1.374a.519.519,0,0,0,.735-.734L83.97,14.949l1.075-1.077,1.43,1.432a.519.519,0,1,0,.735-.734l-1.431-1.433,1.087-1.09,1.43,1.432a.519.519,0,1,0,.735-.734L87.6,11.311l1.088-1.09,1.43,1.433a.519.519,0,1,0,.735-.734L89.421,9.486l1.407-1.41L93.7,10.948ZM96.741,11.5a.724.724,0,0,1-1.023,0L90.269,6.047a.723.723,0,0,1,1.023-1.023l5.449,5.449a.723.723,0,0,1,0,1.023Zm.195-2.3-4.37-4.37,2.878-2.884a3.083,3.083,0,0,1,4.365,0,3.1,3.1,0,0,1,0,4.375Z" transform="translate(-80.799)" fill="#2f314a"/>
        </g>
      </g>
    </g>
    <g id="prohibition" transform="translate(570 1163)">
      <g id="Grupo_1859" data-name="Grupo 1859">
        <path id="Caminho_456" data-name="Caminho 456" d="M34.142,5.858A20,20,0,0,0,5.858,34.142,20,20,0,0,0,34.142,5.858ZM20,37.656A17.647,17.647,0,0,1,6.72,8.377l24.9,24.9A17.582,17.582,0,0,1,20,37.656Zm13.28-6.034L8.378,6.72a17.647,17.647,0,0,1,24.9,24.9Z" fill="#2f314a"/>
      </g>
    </g>
  </g>
</svg>
